<mxfile host="app.diagrams.net" modified="2022-02-22T09:26:18.745Z" agent="5.0 (X11; Linux x86_64) AppleWebKit/537.36 (KHTML, like Gecko) Chrome/98.0.4758.80 Safari/537.36" etag="YdT9FkASOpA5W2CfF3dj" version="16.6.1" type="github" pages="2">
  <diagram id="3Q223ag3BZygw8ccH0rM" name="Page-1">
    <mxGraphModel dx="1053" dy="532" grid="1" gridSize="10" guides="1" tooltips="1" connect="1" arrows="1" fold="1" page="1" pageScale="1" pageWidth="827" pageHeight="1169" math="0" shadow="0">
      <root>
        <mxCell id="0" />
        <mxCell id="1" parent="0" />
        <mxCell id="ld_0Tn9YxmYNyYc4zbBm-35" value="" style="rounded=0;whiteSpace=wrap;html=1;" parent="1" vertex="1">
          <mxGeometry x="330" y="400" width="460" height="260" as="geometry" />
        </mxCell>
        <mxCell id="ld_0Tn9YxmYNyYc4zbBm-36" style="edgeStyle=orthogonalEdgeStyle;rounded=0;orthogonalLoop=1;jettySize=auto;html=1;entryX=0.5;entryY=0;entryDx=0;entryDy=0;" parent="1" source="ld_0Tn9YxmYNyYc4zbBm-1" target="ld_0Tn9YxmYNyYc4zbBm-4" edge="1">
          <mxGeometry relative="1" as="geometry" />
        </mxCell>
        <mxCell id="ld_0Tn9YxmYNyYc4zbBm-37" style="edgeStyle=orthogonalEdgeStyle;rounded=0;orthogonalLoop=1;jettySize=auto;html=1;" parent="1" source="ld_0Tn9YxmYNyYc4zbBm-1" target="ld_0Tn9YxmYNyYc4zbBm-5" edge="1">
          <mxGeometry relative="1" as="geometry" />
        </mxCell>
        <mxCell id="ld_0Tn9YxmYNyYc4zbBm-38" style="edgeStyle=orthogonalEdgeStyle;rounded=0;orthogonalLoop=1;jettySize=auto;html=1;entryX=0.5;entryY=0;entryDx=0;entryDy=0;" parent="1" source="ld_0Tn9YxmYNyYc4zbBm-1" edge="1" target="ld_0Tn9YxmYNyYc4zbBm-39">
          <mxGeometry relative="1" as="geometry">
            <mxPoint x="400" y="330" as="targetPoint" />
            <Array as="points">
              <mxPoint x="430" y="240" />
              <mxPoint x="430" y="330" />
              <mxPoint x="440" y="330" />
            </Array>
          </mxGeometry>
        </mxCell>
        <mxCell id="1IlQZRzY2r7ZzsdePYLX-2" style="edgeStyle=none;rounded=0;orthogonalLoop=1;jettySize=auto;html=1;fontSize=8;startArrow=none;startFill=0;endArrow=classicThin;endFill=1;strokeColor=default;strokeWidth=1;" edge="1" parent="1" source="ld_0Tn9YxmYNyYc4zbBm-1" target="1IlQZRzY2r7ZzsdePYLX-1">
          <mxGeometry relative="1" as="geometry" />
        </mxCell>
        <mxCell id="ld_0Tn9YxmYNyYc4zbBm-1" value="onchain" style="rounded=0;whiteSpace=wrap;html=1;" parent="1" vertex="1">
          <mxGeometry x="130" y="210" width="120" height="60" as="geometry" />
        </mxCell>
        <mxCell id="ld_0Tn9YxmYNyYc4zbBm-34" style="edgeStyle=orthogonalEdgeStyle;rounded=0;orthogonalLoop=1;jettySize=auto;html=1;" parent="1" source="ld_0Tn9YxmYNyYc4zbBm-3" target="ld_0Tn9YxmYNyYc4zbBm-33" edge="1">
          <mxGeometry relative="1" as="geometry" />
        </mxCell>
        <mxCell id="ld_0Tn9YxmYNyYc4zbBm-3" value="offchain" style="rounded=0;whiteSpace=wrap;html=1;" parent="1" vertex="1">
          <mxGeometry x="570" y="210" width="120" height="60" as="geometry" />
        </mxCell>
        <mxCell id="ld_0Tn9YxmYNyYc4zbBm-4" value="tokenId" style="rounded=1;whiteSpace=wrap;html=1;" parent="1" vertex="1">
          <mxGeometry x="50" y="330" width="80" height="40" as="geometry" />
        </mxCell>
        <mxCell id="ld_0Tn9YxmYNyYc4zbBm-32" style="edgeStyle=orthogonalEdgeStyle;rounded=0;orthogonalLoop=1;jettySize=auto;html=1;entryX=0.396;entryY=-0.033;entryDx=0;entryDy=0;entryPerimeter=0;" parent="1" source="ld_0Tn9YxmYNyYc4zbBm-5" target="ld_0Tn9YxmYNyYc4zbBm-30" edge="1">
          <mxGeometry relative="1" as="geometry" />
        </mxCell>
        <mxCell id="ld_0Tn9YxmYNyYc4zbBm-5" value="playerBlueprint" style="rounded=1;whiteSpace=wrap;html=1;" parent="1" vertex="1">
          <mxGeometry x="250" y="330" width="110" height="40" as="geometry" />
        </mxCell>
        <mxCell id="ld_0Tn9YxmYNyYc4zbBm-7" style="edgeStyle=orthogonalEdgeStyle;rounded=0;orthogonalLoop=1;jettySize=auto;html=1;entryX=0;entryY=0.5;entryDx=0;entryDy=0;" parent="1" source="ld_0Tn9YxmYNyYc4zbBm-6" target="ld_0Tn9YxmYNyYc4zbBm-8" edge="1">
          <mxGeometry relative="1" as="geometry">
            <mxPoint x="440" y="450" as="targetPoint" />
          </mxGeometry>
        </mxCell>
        <mxCell id="ld_0Tn9YxmYNyYc4zbBm-10" style="edgeStyle=orthogonalEdgeStyle;rounded=0;orthogonalLoop=1;jettySize=auto;html=1;entryX=0;entryY=0.5;entryDx=0;entryDy=0;" parent="1" source="ld_0Tn9YxmYNyYc4zbBm-6" target="ld_0Tn9YxmYNyYc4zbBm-9" edge="1">
          <mxGeometry relative="1" as="geometry">
            <Array as="points">
              <mxPoint x="430" y="500" />
              <mxPoint x="430" y="550" />
              <mxPoint x="480" y="550" />
              <mxPoint x="480" y="520" />
            </Array>
          </mxGeometry>
        </mxCell>
        <mxCell id="ld_0Tn9YxmYNyYc4zbBm-13" style="edgeStyle=orthogonalEdgeStyle;rounded=0;orthogonalLoop=1;jettySize=auto;html=1;entryX=0;entryY=0.5;entryDx=0;entryDy=0;" parent="1" source="ld_0Tn9YxmYNyYc4zbBm-6" target="ld_0Tn9YxmYNyYc4zbBm-11" edge="1">
          <mxGeometry relative="1" as="geometry">
            <Array as="points">
              <mxPoint x="430" y="500" />
              <mxPoint x="430" y="598" />
            </Array>
          </mxGeometry>
        </mxCell>
        <mxCell id="ld_0Tn9YxmYNyYc4zbBm-31" style="edgeStyle=orthogonalEdgeStyle;rounded=0;orthogonalLoop=1;jettySize=auto;html=1;entryX=0.5;entryY=1;entryDx=0;entryDy=0;" parent="1" source="ld_0Tn9YxmYNyYc4zbBm-6" target="ld_0Tn9YxmYNyYc4zbBm-30" edge="1">
          <mxGeometry relative="1" as="geometry" />
        </mxCell>
        <mxCell id="ld_0Tn9YxmYNyYc4zbBm-6" value="Actor" style="shape=umlActor;verticalLabelPosition=bottom;verticalAlign=top;html=1;outlineConnect=0;" parent="1" vertex="1">
          <mxGeometry x="350" y="470" width="30" height="60" as="geometry" />
        </mxCell>
        <mxCell id="ld_0Tn9YxmYNyYc4zbBm-8" value="name" style="rounded=0;whiteSpace=wrap;html=1;" parent="1" vertex="1">
          <mxGeometry x="495" y="440" width="80" height="20" as="geometry" />
        </mxCell>
        <mxCell id="ld_0Tn9YxmYNyYc4zbBm-9" value="family" style="rounded=0;whiteSpace=wrap;html=1;" parent="1" vertex="1">
          <mxGeometry x="500" y="510" width="70" height="20" as="geometry" />
        </mxCell>
        <mxCell id="ld_0Tn9YxmYNyYc4zbBm-16" style="edgeStyle=orthogonalEdgeStyle;rounded=0;orthogonalLoop=1;jettySize=auto;html=1;entryX=0;entryY=0.5;entryDx=0;entryDy=0;" parent="1" source="ld_0Tn9YxmYNyYc4zbBm-11" target="ld_0Tn9YxmYNyYc4zbBm-14" edge="1">
          <mxGeometry relative="1" as="geometry" />
        </mxCell>
        <mxCell id="ld_0Tn9YxmYNyYc4zbBm-28" style="edgeStyle=orthogonalEdgeStyle;rounded=0;orthogonalLoop=1;jettySize=auto;html=1;entryX=0;entryY=0.75;entryDx=0;entryDy=0;" parent="1" source="ld_0Tn9YxmYNyYc4zbBm-11" target="ld_0Tn9YxmYNyYc4zbBm-23" edge="1">
          <mxGeometry relative="1" as="geometry" />
        </mxCell>
        <mxCell id="ld_0Tn9YxmYNyYc4zbBm-29" style="edgeStyle=orthogonalEdgeStyle;rounded=0;orthogonalLoop=1;jettySize=auto;html=1;entryX=0;entryY=0.75;entryDx=0;entryDy=0;" parent="1" source="ld_0Tn9YxmYNyYc4zbBm-11" target="ld_0Tn9YxmYNyYc4zbBm-25" edge="1">
          <mxGeometry relative="1" as="geometry" />
        </mxCell>
        <mxCell id="ld_0Tn9YxmYNyYc4zbBm-11" value="layers" style="rounded=0;whiteSpace=wrap;html=1;" parent="1" vertex="1">
          <mxGeometry x="500" y="585" width="70" height="25" as="geometry" />
        </mxCell>
        <mxCell id="ld_0Tn9YxmYNyYc4zbBm-17" style="edgeStyle=orthogonalEdgeStyle;rounded=0;orthogonalLoop=1;jettySize=auto;html=1;entryX=0;entryY=0.5;entryDx=0;entryDy=0;" parent="1" source="ld_0Tn9YxmYNyYc4zbBm-14" target="ld_0Tn9YxmYNyYc4zbBm-15" edge="1">
          <mxGeometry relative="1" as="geometry" />
        </mxCell>
        <mxCell id="ld_0Tn9YxmYNyYc4zbBm-14" value="head" style="rounded=0;whiteSpace=wrap;html=1;" parent="1" vertex="1">
          <mxGeometry x="620" y="550" width="50" height="20" as="geometry" />
        </mxCell>
        <mxCell id="ld_0Tn9YxmYNyYc4zbBm-15" value="max 6 layers" style="rounded=0;whiteSpace=wrap;html=1;" parent="1" vertex="1">
          <mxGeometry x="700" y="550" width="80" height="20" as="geometry" />
        </mxCell>
        <mxCell id="ld_0Tn9YxmYNyYc4zbBm-22" style="edgeStyle=orthogonalEdgeStyle;rounded=0;orthogonalLoop=1;jettySize=auto;html=1;entryX=0;entryY=0.5;entryDx=0;entryDy=0;" parent="1" source="ld_0Tn9YxmYNyYc4zbBm-23" target="ld_0Tn9YxmYNyYc4zbBm-24" edge="1">
          <mxGeometry relative="1" as="geometry" />
        </mxCell>
        <mxCell id="ld_0Tn9YxmYNyYc4zbBm-23" value="body" style="rounded=0;whiteSpace=wrap;html=1;" parent="1" vertex="1">
          <mxGeometry x="620" y="585" width="50" height="20" as="geometry" />
        </mxCell>
        <mxCell id="ld_0Tn9YxmYNyYc4zbBm-24" value="max 6 layers" style="rounded=0;whiteSpace=wrap;html=1;" parent="1" vertex="1">
          <mxGeometry x="700" y="585" width="80" height="20" as="geometry" />
        </mxCell>
        <mxCell id="ld_0Tn9YxmYNyYc4zbBm-27" style="edgeStyle=orthogonalEdgeStyle;rounded=0;orthogonalLoop=1;jettySize=auto;html=1;" parent="1" source="ld_0Tn9YxmYNyYc4zbBm-25" target="ld_0Tn9YxmYNyYc4zbBm-26" edge="1">
          <mxGeometry relative="1" as="geometry" />
        </mxCell>
        <mxCell id="ld_0Tn9YxmYNyYc4zbBm-25" value="bottom" style="rounded=0;whiteSpace=wrap;html=1;" parent="1" vertex="1">
          <mxGeometry x="620" y="630" width="50" height="20" as="geometry" />
        </mxCell>
        <mxCell id="ld_0Tn9YxmYNyYc4zbBm-26" value="max 7 layers" style="rounded=0;whiteSpace=wrap;html=1;" parent="1" vertex="1">
          <mxGeometry x="700" y="630" width="80" height="20" as="geometry" />
        </mxCell>
        <mxCell id="ld_0Tn9YxmYNyYc4zbBm-30" value="blueprint" style="rounded=0;whiteSpace=wrap;html=1;" parent="1" vertex="1">
          <mxGeometry x="360" y="410" width="80" height="20" as="geometry" />
        </mxCell>
        <mxCell id="ld_0Tn9YxmYNyYc4zbBm-33" value="player" style="rounded=1;whiteSpace=wrap;html=1;" parent="1" vertex="1">
          <mxGeometry x="575" y="370" width="110" height="40" as="geometry" />
        </mxCell>
        <mxCell id="ld_0Tn9YxmYNyYc4zbBm-39" value="rarity" style="rounded=1;whiteSpace=wrap;html=1;" parent="1" vertex="1">
          <mxGeometry x="385" y="350" width="110" height="40" as="geometry" />
        </mxCell>
        <mxCell id="ld_0Tn9YxmYNyYc4zbBm-40" value="getPlayer(bluePrint, rarity ): tokenId" style="rounded=0;whiteSpace=wrap;html=1;" parent="1" vertex="1">
          <mxGeometry x="30" y="440" width="210" height="30" as="geometry" />
        </mxCell>
        <mxCell id="ld_0Tn9YxmYNyYc4zbBm-41" value="balanceOf(account, tokenId): amount owned" style="rounded=0;whiteSpace=wrap;html=1;" parent="1" vertex="1">
          <mxGeometry x="30" y="480" width="240" height="30" as="geometry" />
        </mxCell>
        <mxCell id="ld_0Tn9YxmYNyYc4zbBm-42" value="tranfersingleEvent(tokenId, buyer, amount)" style="rounded=0;whiteSpace=wrap;html=1;" parent="1" vertex="1">
          <mxGeometry x="30" y="530" width="240" height="30" as="geometry" />
        </mxCell>
        <mxCell id="ld_0Tn9YxmYNyYc4zbBm-43" value="revealedCardEvent(tokenId, rarity, bluePrint)" style="rounded=0;whiteSpace=wrap;html=1;" parent="1" vertex="1">
          <mxGeometry x="30" y="575" width="240" height="30" as="geometry" />
        </mxCell>
        <mxCell id="ld_0Tn9YxmYNyYc4zbBm-44" value="players" style="rounded=0;whiteSpace=wrap;html=1;" parent="1" vertex="1">
          <mxGeometry x="30" y="760" width="230" height="30" as="geometry" />
        </mxCell>
        <mxCell id="ld_0Tn9YxmYNyYc4zbBm-46" value="blueprint" style="rounded=0;whiteSpace=wrap;html=1;" parent="1" vertex="1">
          <mxGeometry x="30" y="790" width="230" height="30" as="geometry" />
        </mxCell>
        <mxCell id="ld_0Tn9YxmYNyYc4zbBm-49" value="players_information" style="rounded=0;whiteSpace=wrap;html=1;" parent="1" vertex="1">
          <mxGeometry x="370" y="760" width="230" height="30" as="geometry" />
        </mxCell>
        <mxCell id="ld_0Tn9YxmYNyYc4zbBm-50" value="id" style="rounded=0;whiteSpace=wrap;html=1;" parent="1" vertex="1">
          <mxGeometry x="370" y="790" width="230" height="30" as="geometry" />
        </mxCell>
        <mxCell id="ld_0Tn9YxmYNyYc4zbBm-51" value="playersBluePrint (FK)" style="rounded=0;whiteSpace=wrap;html=1;" parent="1" vertex="1">
          <mxGeometry x="370" y="820" width="230" height="30" as="geometry" />
        </mxCell>
        <mxCell id="ld_0Tn9YxmYNyYc4zbBm-55" value="" style="endArrow=none;html=1;rounded=0;entryX=1;entryY=0.5;entryDx=0;entryDy=0;exitX=0;exitY=0.5;exitDx=0;exitDy=0;" parent="1" source="ld_0Tn9YxmYNyYc4zbBm-51" target="ld_0Tn9YxmYNyYc4zbBm-46" edge="1">
          <mxGeometry width="50" height="50" relative="1" as="geometry">
            <mxPoint x="480" y="780" as="sourcePoint" />
            <mxPoint x="530" y="730" as="targetPoint" />
          </mxGeometry>
        </mxCell>
        <mxCell id="ld_0Tn9YxmYNyYc4zbBm-64" value="rarity" style="rounded=0;whiteSpace=wrap;html=1;" parent="1" vertex="1">
          <mxGeometry x="30" y="820" width="230" height="30" as="geometry" />
        </mxCell>
        <mxCell id="ld_0Tn9YxmYNyYc4zbBm-66" value="tokenId_players" style="rounded=0;whiteSpace=wrap;html=1;" parent="1" vertex="1">
          <mxGeometry x="1000" y="960" width="230" height="30" as="geometry" />
        </mxCell>
        <mxCell id="ld_0Tn9YxmYNyYc4zbBm-67" value="tokenId" style="rounded=0;whiteSpace=wrap;html=1;" parent="1" vertex="1">
          <mxGeometry x="1000" y="990" width="230" height="30" as="geometry" />
        </mxCell>
        <mxCell id="ld_0Tn9YxmYNyYc4zbBm-69" value="playersId" style="rounded=0;whiteSpace=wrap;html=1;" parent="1" vertex="1">
          <mxGeometry x="1000" y="1020" width="230" height="30" as="geometry" />
        </mxCell>
        <mxCell id="ld_0Tn9YxmYNyYc4zbBm-73" value="" style="group" parent="1" vertex="1" connectable="0">
          <mxGeometry x="680" y="960" width="230" height="120" as="geometry" />
        </mxCell>
        <mxCell id="ld_0Tn9YxmYNyYc4zbBm-61" value="user_nft_players" style="rounded=0;whiteSpace=wrap;html=1;" parent="ld_0Tn9YxmYNyYc4zbBm-73" vertex="1">
          <mxGeometry width="230" height="30" as="geometry" />
        </mxCell>
        <mxCell id="ld_0Tn9YxmYNyYc4zbBm-62" value="usersId" style="rounded=0;whiteSpace=wrap;html=1;" parent="ld_0Tn9YxmYNyYc4zbBm-73" vertex="1">
          <mxGeometry y="30" width="230" height="30" as="geometry" />
        </mxCell>
        <mxCell id="ld_0Tn9YxmYNyYc4zbBm-65" value="tokenId" style="rounded=0;whiteSpace=wrap;html=1;" parent="ld_0Tn9YxmYNyYc4zbBm-73" vertex="1">
          <mxGeometry y="60" width="230" height="30" as="geometry" />
        </mxCell>
        <mxCell id="ld_0Tn9YxmYNyYc4zbBm-71" value="value (balance)" style="rounded=0;whiteSpace=wrap;html=1;" parent="ld_0Tn9YxmYNyYc4zbBm-73" vertex="1">
          <mxGeometry y="90" width="230" height="30" as="geometry" />
        </mxCell>
        <mxCell id="ld_0Tn9YxmYNyYc4zbBm-74" value="" style="group" parent="1" vertex="1" connectable="0">
          <mxGeometry x="370" y="960" width="230" height="90" as="geometry" />
        </mxCell>
        <mxCell id="ld_0Tn9YxmYNyYc4zbBm-58" value="users_players" style="rounded=0;whiteSpace=wrap;html=1;" parent="ld_0Tn9YxmYNyYc4zbBm-74" vertex="1">
          <mxGeometry width="230" height="30" as="geometry" />
        </mxCell>
        <mxCell id="ld_0Tn9YxmYNyYc4zbBm-59" value="userId" style="rounded=0;whiteSpace=wrap;html=1;" parent="ld_0Tn9YxmYNyYc4zbBm-74" vertex="1">
          <mxGeometry y="30" width="230" height="30" as="geometry" />
        </mxCell>
        <mxCell id="ld_0Tn9YxmYNyYc4zbBm-63" value="playersId" style="rounded=0;whiteSpace=wrap;html=1;" parent="ld_0Tn9YxmYNyYc4zbBm-74" vertex="1">
          <mxGeometry y="60" width="230" height="30" as="geometry" />
        </mxCell>
        <mxCell id="ld_0Tn9YxmYNyYc4zbBm-75" value="" style="group" parent="1" vertex="1" connectable="0">
          <mxGeometry x="30" y="960" width="230" height="90" as="geometry" />
        </mxCell>
        <mxCell id="ld_0Tn9YxmYNyYc4zbBm-52" value="users" style="rounded=0;whiteSpace=wrap;html=1;" parent="ld_0Tn9YxmYNyYc4zbBm-75" vertex="1">
          <mxGeometry width="230" height="30" as="geometry" />
        </mxCell>
        <mxCell id="ld_0Tn9YxmYNyYc4zbBm-56" value="id" style="rounded=0;whiteSpace=wrap;html=1;" parent="ld_0Tn9YxmYNyYc4zbBm-75" vertex="1">
          <mxGeometry y="30" width="230" height="30" as="geometry" />
        </mxCell>
        <mxCell id="ld_0Tn9YxmYNyYc4zbBm-70" value="wallet_address" style="rounded=0;whiteSpace=wrap;html=1;" parent="ld_0Tn9YxmYNyYc4zbBm-75" vertex="1">
          <mxGeometry y="60" width="230" height="30" as="geometry" />
        </mxCell>
        <mxCell id="1IlQZRzY2r7ZzsdePYLX-1" value="total Blue Prints" style="rounded=1;whiteSpace=wrap;html=1;" vertex="1" parent="1">
          <mxGeometry x="150" y="330" width="80" height="40" as="geometry" />
        </mxCell>
      </root>
    </mxGraphModel>
  </diagram>
  <diagram id="Q6kmCyXofZc0tDLaNPng" name="Page-2">
    <mxGraphModel dx="1673" dy="845" grid="1" gridSize="10" guides="1" tooltips="1" connect="1" arrows="1" fold="1" page="1" pageScale="1" pageWidth="827" pageHeight="1169" math="0" shadow="0">
      <root>
        <mxCell id="5ZUfr6p9lb8zKIRzLnJt-0" />
        <mxCell id="5ZUfr6p9lb8zKIRzLnJt-1" parent="5ZUfr6p9lb8zKIRzLnJt-0" />
        <mxCell id="pWLsWgDy2R7Qz2uQCMan-71" value="" style="rounded=0;whiteSpace=wrap;html=1;fontSize=8;fillColor=#FFCCCC;strokeColor=#82b366;movable=0;resizable=0;rotatable=0;deletable=0;editable=0;connectable=0;" vertex="1" parent="5ZUfr6p9lb8zKIRzLnJt-1">
          <mxGeometry x="230" y="170" width="1540" height="240" as="geometry" />
        </mxCell>
        <mxCell id="pWLsWgDy2R7Qz2uQCMan-34" value="" style="fontSize=12;html=1;endArrow=blockThin;endFill=1;rounded=0;" edge="1" parent="5ZUfr6p9lb8zKIRzLnJt-1">
          <mxGeometry width="160" relative="1" as="geometry">
            <mxPoint x="479.82352941176487" y="470" as="sourcePoint" />
            <mxPoint x="1279.9999999999995" y="470" as="targetPoint" />
            <Array as="points">
              <mxPoint x="630.5" y="470" />
              <mxPoint x="860.5" y="470" />
            </Array>
          </mxGeometry>
        </mxCell>
        <mxCell id="iGW_8nmp0ndJy8pShdKa-51" style="edgeStyle=none;rounded=0;orthogonalLoop=1;jettySize=auto;html=1;fontSize=8;startArrow=none;startFill=0;endArrow=classic;endFill=1;strokeColor=default;strokeWidth=1;" edge="1" parent="5ZUfr6p9lb8zKIRzLnJt-1" source="iGW_8nmp0ndJy8pShdKa-3" target="5ZUfr6p9lb8zKIRzLnJt-4">
          <mxGeometry relative="1" as="geometry">
            <mxPoint x="939.48" y="269.76" as="sourcePoint" />
            <mxPoint x="750.0038095238097" y="269.76" as="targetPoint" />
            <Array as="points">
              <mxPoint x="770" y="280" />
            </Array>
          </mxGeometry>
        </mxCell>
        <mxCell id="iGW_8nmp0ndJy8pShdKa-10" value="" style="edgeStyle=elbowEdgeStyle;fontSize=12;html=1;endArrow=blockThin;endFill=1;rounded=0;" edge="1" parent="5ZUfr6p9lb8zKIRzLnJt-1" source="iGW_8nmp0ndJy8pShdKa-3" target="iGW_8nmp0ndJy8pShdKa-6">
          <mxGeometry width="160" relative="1" as="geometry">
            <mxPoint x="940" y="229.52" as="sourcePoint" />
            <mxPoint x="1090" y="230" as="targetPoint" />
            <Array as="points">
              <mxPoint x="1015" y="260" />
            </Array>
          </mxGeometry>
        </mxCell>
        <mxCell id="iGW_8nmp0ndJy8pShdKa-11" value="&lt;span style=&quot;font-size: 8px&quot;&gt;event requestRandomNumber(requestId)&lt;/span&gt;" style="text;html=1;align=center;verticalAlign=middle;resizable=0;points=[];autosize=1;strokeColor=none;fillColor=none;" vertex="1" parent="5ZUfr6p9lb8zKIRzLnJt-1">
          <mxGeometry x="955" y="239.52" width="160" height="20" as="geometry" />
        </mxCell>
        <mxCell id="iGW_8nmp0ndJy8pShdKa-33" style="edgeStyle=none;rounded=0;orthogonalLoop=1;jettySize=auto;html=1;dashed=1;dashPattern=1 4;fontSize=8;startArrow=none;startFill=0;endArrow=classic;endFill=1;strokeColor=default;strokeWidth=1;" edge="1" parent="5ZUfr6p9lb8zKIRzLnJt-1" source="iGW_8nmp0ndJy8pShdKa-6" target="iGW_8nmp0ndJy8pShdKa-3">
          <mxGeometry relative="1" as="geometry">
            <mxPoint x="735.22" y="270.76" as="targetPoint" />
            <Array as="points">
              <mxPoint x="960" y="271" />
            </Array>
          </mxGeometry>
        </mxCell>
        <mxCell id="iGW_8nmp0ndJy8pShdKa-4" value="" style="fontSize=12;html=1;endArrow=blockThin;endFill=1;rounded=0;" edge="1" parent="5ZUfr6p9lb8zKIRzLnJt-1" source="5ZUfr6p9lb8zKIRzLnJt-4" target="iGW_8nmp0ndJy8pShdKa-3">
          <mxGeometry width="160" relative="1" as="geometry">
            <mxPoint x="710" y="229.9999999999999" as="sourcePoint" />
            <mxPoint x="939.5" y="229.9999999999999" as="targetPoint" />
            <Array as="points">
              <mxPoint x="870" y="250" />
              <mxPoint x="910" y="250" />
            </Array>
          </mxGeometry>
        </mxCell>
        <mxCell id="5ZUfr6p9lb8zKIRzLnJt-43" value="" style="edgeStyle=elbowEdgeStyle;fontSize=12;html=1;endArrow=blockThin;endFill=1;rounded=0;" edge="1" parent="5ZUfr6p9lb8zKIRzLnJt-1">
          <mxGeometry width="160" relative="1" as="geometry">
            <mxPoint x="230" y="200" as="sourcePoint" />
            <mxPoint x="480" y="200.48000000000002" as="targetPoint" />
          </mxGeometry>
        </mxCell>
        <mxCell id="5ZUfr6p9lb8zKIRzLnJt-2" value="user" style="shape=umlLifeline;perimeter=lifelinePerimeter;whiteSpace=wrap;html=1;container=1;collapsible=0;recursiveResize=0;outlineConnect=0;" vertex="1" parent="5ZUfr6p9lb8zKIRzLnJt-1">
          <mxGeometry x="50" y="120" width="100" height="640" as="geometry" />
        </mxCell>
        <mxCell id="5ZUfr6p9lb8zKIRzLnJt-3" value="external_database" style="shape=umlLifeline;perimeter=lifelinePerimeter;whiteSpace=wrap;html=1;container=1;collapsible=0;recursiveResize=0;outlineConnect=0;lifelineDashed=0;" vertex="1" parent="5ZUfr6p9lb8zKIRzLnJt-1">
          <mxGeometry x="1630" y="120" width="100" height="640" as="geometry" />
        </mxCell>
        <mxCell id="5ZUfr6p9lb8zKIRzLnJt-4" value="NFTContract" style="shape=umlLifeline;perimeter=lifelinePerimeter;whiteSpace=wrap;html=1;container=1;collapsible=0;recursiveResize=0;outlineConnect=0;lifelineDashed=0;" vertex="1" parent="5ZUfr6p9lb8zKIRzLnJt-1">
          <mxGeometry x="660" y="120" width="100" height="640" as="geometry" />
        </mxCell>
        <mxCell id="iGW_8nmp0ndJy8pShdKa-31" value="2" style="text;html=1;align=center;verticalAlign=middle;resizable=0;points=[];autosize=1;strokeColor=none;fillColor=none;fontSize=8;" vertex="1" parent="5ZUfr6p9lb8zKIRzLnJt-4">
          <mxGeometry x="70" y="110" width="20" height="20" as="geometry" />
        </mxCell>
        <mxCell id="5ZUfr6p9lb8zKIRzLnJt-54" value="&lt;font style=&quot;font-size: 8px&quot;&gt;buyPack(buyer, packCount, packId)&amp;nbsp;&lt;/font&gt;" style="text;html=1;align=center;verticalAlign=middle;resizable=0;points=[];autosize=1;strokeColor=none;fillColor=none;" vertex="1" parent="5ZUfr6p9lb8zKIRzLnJt-4">
          <mxGeometry x="-139.5" y="79.52000000000001" width="140" height="20" as="geometry" />
        </mxCell>
        <mxCell id="5ZUfr6p9lb8zKIRzLnJt-55" value="" style="fontSize=12;html=1;endArrow=blockThin;endFill=1;rounded=0;startArrow=none;" edge="1" parent="5ZUfr6p9lb8zKIRzLnJt-4">
          <mxGeometry width="160" relative="1" as="geometry">
            <mxPoint x="-175" y="99.51999999999987" as="sourcePoint" />
            <mxPoint x="50" y="99.52000000000001" as="targetPoint" />
            <Array as="points">
              <mxPoint x="0.5" y="99.52000000000001" />
            </Array>
          </mxGeometry>
        </mxCell>
        <mxCell id="iGW_8nmp0ndJy8pShdKa-48" value="" style="html=1;points=[];perimeter=orthogonalPerimeter;fontSize=8;" vertex="1" parent="5ZUfr6p9lb8zKIRzLnJt-4">
          <mxGeometry x="45" y="100" width="10" height="30" as="geometry" />
        </mxCell>
        <mxCell id="iGW_8nmp0ndJy8pShdKa-55" value="" style="html=1;points=[];perimeter=orthogonalPerimeter;fontSize=8;" vertex="1" parent="5ZUfr6p9lb8zKIRzLnJt-4">
          <mxGeometry x="45" y="150" width="10" height="40" as="geometry" />
        </mxCell>
        <mxCell id="iGW_8nmp0ndJy8pShdKa-29" value="1" style="text;html=1;align=center;verticalAlign=middle;resizable=0;points=[];autosize=1;strokeColor=none;fillColor=none;fontSize=8;" vertex="1" parent="5ZUfr6p9lb8zKIRzLnJt-4">
          <mxGeometry x="70" y="90" width="20" height="20" as="geometry" />
        </mxCell>
        <mxCell id="iGW_8nmp0ndJy8pShdKa-66" value="" style="html=1;points=[];perimeter=orthogonalPerimeter;fontSize=8;" vertex="1" parent="5ZUfr6p9lb8zKIRzLnJt-4">
          <mxGeometry x="45" y="220" width="10" height="30" as="geometry" />
        </mxCell>
        <mxCell id="pWLsWgDy2R7Qz2uQCMan-47" value="" style="fontSize=12;html=1;endArrow=blockThin;endFill=1;rounded=0;" edge="1" parent="5ZUfr6p9lb8zKIRzLnJt-4">
          <mxGeometry width="160" relative="1" as="geometry">
            <mxPoint x="-179" y="390" as="sourcePoint" />
            <mxPoint x="50.5" y="390" as="targetPoint" />
            <Array as="points">
              <mxPoint x="31" y="390" />
            </Array>
          </mxGeometry>
        </mxCell>
        <mxCell id="pWLsWgDy2R7Qz2uQCMan-48" value="&lt;span style=&quot;font-size: 8px&quot;&gt;retrievePlayers(userId)&lt;/span&gt;" style="text;html=1;align=center;verticalAlign=middle;resizable=0;points=[];autosize=1;strokeColor=none;fillColor=none;" vertex="1" parent="5ZUfr6p9lb8zKIRzLnJt-4">
          <mxGeometry x="-110" y="369.99999999999994" width="100" height="20" as="geometry" />
        </mxCell>
        <mxCell id="pWLsWgDy2R7Qz2uQCMan-55" value="" style="html=1;points=[];perimeter=orthogonalPerimeter;fontSize=8;" vertex="1" parent="5ZUfr6p9lb8zKIRzLnJt-4">
          <mxGeometry x="45.5" y="540" width="10" height="70" as="geometry" />
        </mxCell>
        <mxCell id="5ZUfr6p9lb8zKIRzLnJt-5" value="playfab" style="shape=umlLifeline;perimeter=lifelinePerimeter;whiteSpace=wrap;html=1;container=1;collapsible=0;recursiveResize=0;outlineConnect=0;lifelineDashed=0;" vertex="1" parent="5ZUfr6p9lb8zKIRzLnJt-1">
          <mxGeometry x="1400" y="120" width="170" height="640" as="geometry" />
        </mxCell>
        <mxCell id="pWLsWgDy2R7Qz2uQCMan-44" value="&lt;span style=&quot;font-size: 8px&quot;&gt;userPlayerData&lt;/span&gt;" style="text;html=1;align=center;verticalAlign=middle;resizable=0;points=[];autosize=1;strokeColor=none;fillColor=none;" vertex="1" parent="5ZUfr6p9lb8zKIRzLnJt-5">
          <mxGeometry x="-39.5" y="420" width="70" height="20" as="geometry" />
        </mxCell>
        <mxCell id="pWLsWgDy2R7Qz2uQCMan-67" value="updatePlayerData(userAddress, bluePrint , tokenId)" style="text;html=1;align=center;verticalAlign=middle;resizable=0;points=[];autosize=1;strokeColor=none;fillColor=none;fontSize=8;" vertex="1" parent="5ZUfr6p9lb8zKIRzLnJt-5">
          <mxGeometry x="-49.5" y="600" width="200" height="20" as="geometry" />
        </mxCell>
        <mxCell id="pWLsWgDy2R7Qz2uQCMan-42" value="&lt;span style=&quot;font-size: 8px&quot;&gt;updateUserOwnedPlayers(username, players)&amp;nbsp;&lt;/span&gt;" style="text;html=1;align=center;verticalAlign=middle;resizable=0;points=[];autosize=1;strokeColor=none;fillColor=none;" vertex="1" parent="5ZUfr6p9lb8zKIRzLnJt-5">
          <mxGeometry x="-114.5" y="340" width="180" height="20" as="geometry" />
        </mxCell>
        <mxCell id="pWLsWgDy2R7Qz2uQCMan-81" value="" style="fontSize=12;html=1;endArrow=blockThin;endFill=1;rounded=0;strokeColor=default;strokeWidth=1;" edge="1" parent="5ZUfr6p9lb8zKIRzLnJt-5">
          <mxGeometry width="160" relative="1" as="geometry">
            <mxPoint x="-115.25" y="279.9999999999998" as="sourcePoint" />
            <mxPoint x="285.25" y="279.9999999999998" as="targetPoint" />
          </mxGeometry>
        </mxCell>
        <mxCell id="pWLsWgDy2R7Qz2uQCMan-69" value="&lt;b&gt;need endpint external database to playfab&lt;/b&gt;" style="text;html=1;align=center;verticalAlign=middle;resizable=0;points=[];autosize=1;strokeColor=none;fillColor=none;fontSize=8;" vertex="1" parent="5ZUfr6p9lb8zKIRzLnJt-5">
          <mxGeometry x="-110" y="320" width="180" height="20" as="geometry" />
        </mxCell>
        <mxCell id="5ZUfr6p9lb8zKIRzLnJt-7" value="market place" style="shape=umlLifeline;perimeter=lifelinePerimeter;whiteSpace=wrap;html=1;container=1;collapsible=0;recursiveResize=0;outlineConnect=0;lifelineDashed=0;" vertex="1" parent="5ZUfr6p9lb8zKIRzLnJt-1">
          <mxGeometry x="430" y="120" width="100" height="640" as="geometry" />
        </mxCell>
        <mxCell id="iGW_8nmp0ndJy8pShdKa-34" value="" style="html=1;points=[];perimeter=orthogonalPerimeter;fontSize=8;" vertex="1" parent="5ZUfr6p9lb8zKIRzLnJt-7">
          <mxGeometry x="45" y="60" width="10" height="190" as="geometry" />
        </mxCell>
        <mxCell id="pWLsWgDy2R7Qz2uQCMan-18" value="" style="fontSize=12;html=1;endArrow=blockThin;endFill=1;rounded=0;strokeColor=none;" edge="1" parent="5ZUfr6p9lb8zKIRzLnJt-7" target="5ZUfr6p9lb8zKIRzLnJt-62">
          <mxGeometry width="160" relative="1" as="geometry">
            <mxPoint x="-200" y="290" as="sourcePoint" />
            <mxPoint x="160.83333333333334" y="290" as="targetPoint" />
          </mxGeometry>
        </mxCell>
        <mxCell id="pWLsWgDy2R7Qz2uQCMan-16" value="" style="html=1;points=[];perimeter=orthogonalPerimeter;fontSize=8;" vertex="1" parent="5ZUfr6p9lb8zKIRzLnJt-7">
          <mxGeometry x="45.5" y="330" width="10" height="30" as="geometry" />
        </mxCell>
        <mxCell id="pWLsWgDy2R7Qz2uQCMan-11" value="" style="edgeStyle=elbowEdgeStyle;fontSize=12;html=1;endArrow=blockThin;endFill=1;rounded=0;" edge="1" parent="5ZUfr6p9lb8zKIRzLnJt-7">
          <mxGeometry width="160" relative="1" as="geometry">
            <mxPoint x="-201.5" y="515" as="sourcePoint" />
            <mxPoint x="50.5" y="515.8299999999999" as="targetPoint" />
          </mxGeometry>
        </mxCell>
        <mxCell id="pWLsWgDy2R7Qz2uQCMan-46" value="" style="html=1;points=[];perimeter=orthogonalPerimeter;fontSize=8;" vertex="1" parent="5ZUfr6p9lb8zKIRzLnJt-7">
          <mxGeometry x="45.5" y="390" width="10" height="50" as="geometry" />
        </mxCell>
        <mxCell id="5ZUfr6p9lb8zKIRzLnJt-15" value="" style="group" vertex="1" connectable="0" parent="5ZUfr6p9lb8zKIRzLnJt-1">
          <mxGeometry x="40" y="1260" width="200" height="105" as="geometry" />
        </mxCell>
        <mxCell id="5ZUfr6p9lb8zKIRzLnJt-12" value="Packs" style="rounded=0;whiteSpace=wrap;html=1;" vertex="1" parent="5ZUfr6p9lb8zKIRzLnJt-15">
          <mxGeometry width="200" height="35" as="geometry" />
        </mxCell>
        <mxCell id="5ZUfr6p9lb8zKIRzLnJt-13" value="type (basic pack, promotion pack, special )" style="rounded=0;whiteSpace=wrap;html=1;" vertex="1" parent="5ZUfr6p9lb8zKIRzLnJt-15">
          <mxGeometry y="80" width="200" height="35" as="geometry" />
        </mxCell>
        <mxCell id="5ZUfr6p9lb8zKIRzLnJt-14" value="packCount" style="rounded=0;whiteSpace=wrap;html=1;" vertex="1" parent="5ZUfr6p9lb8zKIRzLnJt-15">
          <mxGeometry y="115" width="200" height="35" as="geometry" />
        </mxCell>
        <mxCell id="5ZUfr6p9lb8zKIRzLnJt-25" value="purchaseId (PK)" style="rounded=0;whiteSpace=wrap;html=1;" vertex="1" parent="5ZUfr6p9lb8zKIRzLnJt-15">
          <mxGeometry y="35" width="200" height="45" as="geometry" />
        </mxCell>
        <mxCell id="5ZUfr6p9lb8zKIRzLnJt-17" value="" style="group" vertex="1" connectable="0" parent="5ZUfr6p9lb8zKIRzLnJt-1">
          <mxGeometry x="280" y="1260" width="200" height="135" as="geometry" />
        </mxCell>
        <mxCell id="5ZUfr6p9lb8zKIRzLnJt-18" value="Pack" style="rounded=0;whiteSpace=wrap;html=1;" vertex="1" parent="5ZUfr6p9lb8zKIRzLnJt-17">
          <mxGeometry width="200" height="35" as="geometry" />
        </mxCell>
        <mxCell id="5ZUfr6p9lb8zKIRzLnJt-26" value="" style="group" vertex="1" connectable="0" parent="5ZUfr6p9lb8zKIRzLnJt-17">
          <mxGeometry y="30" width="200" height="105" as="geometry" />
        </mxCell>
        <mxCell id="5ZUfr6p9lb8zKIRzLnJt-27" value="packId (FK)" style="rounded=0;whiteSpace=wrap;html=1;" vertex="1" parent="5ZUfr6p9lb8zKIRzLnJt-26">
          <mxGeometry width="200" height="35" as="geometry" />
        </mxCell>
        <mxCell id="5ZUfr6p9lb8zKIRzLnJt-20" value="cardCount (3)" style="rounded=0;whiteSpace=wrap;html=1;" vertex="1" parent="5ZUfr6p9lb8zKIRzLnJt-26">
          <mxGeometry y="35" width="200" height="35" as="geometry" />
        </mxCell>
        <mxCell id="5ZUfr6p9lb8zKIRzLnJt-28" value="setting:&amp;nbsp; Common" style="rounded=0;whiteSpace=wrap;html=1;" vertex="1" parent="5ZUfr6p9lb8zKIRzLnJt-26">
          <mxGeometry y="70" width="200" height="35" as="geometry" />
        </mxCell>
        <mxCell id="5ZUfr6p9lb8zKIRzLnJt-38" value="wallet" style="shape=umlLifeline;perimeter=lifelinePerimeter;whiteSpace=wrap;html=1;container=1;collapsible=0;recursiveResize=0;outlineConnect=0;lifelineDashed=0;" vertex="1" parent="5ZUfr6p9lb8zKIRzLnJt-1">
          <mxGeometry x="180" y="120" width="100" height="640" as="geometry" />
        </mxCell>
        <mxCell id="pWLsWgDy2R7Qz2uQCMan-52" value="" style="fontSize=12;html=1;endArrow=none;endFill=0;rounded=0;startArrow=classic;startFill=1;" edge="1" parent="5ZUfr6p9lb8zKIRzLnJt-38">
          <mxGeometry width="160" relative="1" as="geometry">
            <mxPoint x="50.5" y="550" as="sourcePoint" />
            <mxPoint x="531" y="550" as="targetPoint" />
          </mxGeometry>
        </mxCell>
        <mxCell id="5ZUfr6p9lb8zKIRzLnJt-8" value="" style="html=1;verticalAlign=bottom;endArrow=block;rounded=0;dashed=1;" edge="1" parent="5ZUfr6p9lb8zKIRzLnJt-38">
          <mxGeometry width="80" relative="1" as="geometry">
            <mxPoint x="-79.5" y="69.43" as="sourcePoint" />
            <mxPoint x="50" y="69.43" as="targetPoint" />
          </mxGeometry>
        </mxCell>
        <mxCell id="5ZUfr6p9lb8zKIRzLnJt-9" value="connectWallet" style="text;html=1;align=center;verticalAlign=middle;resizable=0;points=[];autosize=1;strokeColor=none;fillColor=none;" vertex="1" parent="5ZUfr6p9lb8zKIRzLnJt-38">
          <mxGeometry x="-49.5" y="48.95000000000002" width="90" height="20" as="geometry" />
        </mxCell>
        <mxCell id="pWLsWgDy2R7Qz2uQCMan-53" value="" style="html=1;points=[];perimeter=orthogonalPerimeter;fontSize=8;" vertex="1" parent="5ZUfr6p9lb8zKIRzLnJt-38">
          <mxGeometry x="45.5" y="510" width="10" height="50" as="geometry" />
        </mxCell>
        <mxCell id="5ZUfr6p9lb8zKIRzLnJt-52" value="" style="group" vertex="1" connectable="0" parent="5ZUfr6p9lb8zKIRzLnJt-1">
          <mxGeometry x="50" y="1480" width="160" height="20" as="geometry" />
        </mxCell>
        <mxCell id="5ZUfr6p9lb8zKIRzLnJt-50" value="" style="edgeStyle=elbowEdgeStyle;fontSize=12;html=1;endArrow=blockThin;endFill=1;rounded=0;" edge="1" parent="5ZUfr6p9lb8zKIRzLnJt-52">
          <mxGeometry width="160" relative="1" as="geometry">
            <mxPoint y="20" as="sourcePoint" />
            <mxPoint x="160" y="20" as="targetPoint" />
          </mxGeometry>
        </mxCell>
        <mxCell id="5ZUfr6p9lb8zKIRzLnJt-51" value="sellPlayer" style="text;html=1;align=center;verticalAlign=middle;resizable=0;points=[];autosize=1;strokeColor=none;fillColor=none;" vertex="1" parent="5ZUfr6p9lb8zKIRzLnJt-52">
          <mxGeometry x="45" width="70" height="20" as="geometry" />
        </mxCell>
        <mxCell id="5ZUfr6p9lb8zKIRzLnJt-53" value="" style="group" vertex="1" connectable="0" parent="5ZUfr6p9lb8zKIRzLnJt-1">
          <mxGeometry x="50" y="1430" width="160" height="20" as="geometry" />
        </mxCell>
        <mxCell id="5ZUfr6p9lb8zKIRzLnJt-48" value="" style="edgeStyle=elbowEdgeStyle;fontSize=12;html=1;endArrow=blockThin;endFill=1;rounded=0;" edge="1" parent="5ZUfr6p9lb8zKIRzLnJt-53">
          <mxGeometry width="160" relative="1" as="geometry">
            <mxPoint y="20" as="sourcePoint" />
            <mxPoint x="160" y="20" as="targetPoint" />
          </mxGeometry>
        </mxCell>
        <mxCell id="5ZUfr6p9lb8zKIRzLnJt-49" value="buyPlayer" style="text;html=1;align=center;verticalAlign=middle;resizable=0;points=[];autosize=1;strokeColor=none;fillColor=none;" vertex="1" parent="5ZUfr6p9lb8zKIRzLnJt-53">
          <mxGeometry x="45" width="70" height="20" as="geometry" />
        </mxCell>
        <mxCell id="5ZUfr6p9lb8zKIRzLnJt-59" value="&amp;nbsp;" style="text;html=1;align=center;verticalAlign=middle;resizable=0;points=[];autosize=1;strokeColor=none;fillColor=none;fontSize=8;" vertex="1" parent="5ZUfr6p9lb8zKIRzLnJt-1">
          <mxGeometry x="340" y="180" width="20" height="20" as="geometry" />
        </mxCell>
        <mxCell id="5ZUfr6p9lb8zKIRzLnJt-62" value="server" style="shape=umlLifeline;perimeter=lifelinePerimeter;whiteSpace=wrap;html=1;container=1;collapsible=0;recursiveResize=0;outlineConnect=0;lifelineDashed=0;" vertex="1" parent="5ZUfr6p9lb8zKIRzLnJt-1">
          <mxGeometry x="1230" y="120" width="100" height="640" as="geometry" />
        </mxCell>
        <mxCell id="iGW_8nmp0ndJy8pShdKa-61" value="" style="html=1;points=[];perimeter=orthogonalPerimeter;fontSize=8;" vertex="1" parent="5ZUfr6p9lb8zKIRzLnJt-62">
          <mxGeometry x="45" y="190" width="10" height="30" as="geometry" />
        </mxCell>
        <mxCell id="iGW_8nmp0ndJy8pShdKa-62" value="listening" style="text;html=1;align=center;verticalAlign=middle;resizable=0;points=[];autosize=1;strokeColor=none;fillColor=none;fontSize=8;" vertex="1" parent="5ZUfr6p9lb8zKIRzLnJt-62">
          <mxGeometry x="55" y="190" width="40" height="20" as="geometry" />
        </mxCell>
        <mxCell id="pWLsWgDy2R7Qz2uQCMan-59" value="listening" style="text;html=1;align=center;verticalAlign=middle;resizable=0;points=[];autosize=1;strokeColor=none;fillColor=none;fontSize=8;" vertex="1" parent="5ZUfr6p9lb8zKIRzLnJt-62">
          <mxGeometry x="55.5" y="560" width="40" height="20" as="geometry" />
        </mxCell>
        <mxCell id="pWLsWgDy2R7Qz2uQCMan-57" value="" style="html=1;points=[];perimeter=orthogonalPerimeter;fontSize=8;" vertex="1" parent="5ZUfr6p9lb8zKIRzLnJt-62">
          <mxGeometry x="45.5" y="560" width="10" height="60" as="geometry" />
        </mxCell>
        <mxCell id="pWLsWgDy2R7Qz2uQCMan-77" value="" style="html=1;points=[];perimeter=orthogonalPerimeter;fontSize=8;" vertex="1" parent="5ZUfr6p9lb8zKIRzLnJt-62">
          <mxGeometry x="45" y="250" width="10" height="30" as="geometry" />
        </mxCell>
        <mxCell id="pWLsWgDy2R7Qz2uQCMan-78" value="listening" style="text;html=1;align=center;verticalAlign=middle;resizable=0;points=[];autosize=1;strokeColor=none;fillColor=none;fontSize=8;" vertex="1" parent="5ZUfr6p9lb8zKIRzLnJt-62">
          <mxGeometry x="55" y="250" width="40" height="20" as="geometry" />
        </mxCell>
        <mxCell id="iGW_8nmp0ndJy8pShdKa-1" value="" style="group" vertex="1" connectable="0" parent="5ZUfr6p9lb8zKIRzLnJt-1">
          <mxGeometry x="694.9986206896551" y="1370" width="180" height="60" as="geometry" />
        </mxCell>
        <mxCell id="5ZUfr6p9lb8zKIRzLnJt-68" value="&lt;font style=&quot;font-size: 8px&quot;&gt;event BoughtPack(packCount, packId)&lt;/font&gt;" style="text;html=1;align=center;verticalAlign=middle;resizable=0;points=[];autosize=1;strokeColor=none;fillColor=none;" vertex="1" parent="iGW_8nmp0ndJy8pShdKa-1">
          <mxGeometry x="0.0034482758620697496" width="150" height="20" as="geometry" />
        </mxCell>
        <mxCell id="5ZUfr6p9lb8zKIRzLnJt-69" value="&lt;font style=&quot;font-size: 8px&quot;&gt;event TransferSingle(from, to, tokenId,value)&lt;/font&gt;" style="text;html=1;align=center;verticalAlign=middle;resizable=0;points=[];autosize=1;strokeColor=none;fillColor=none;" vertex="1" parent="iGW_8nmp0ndJy8pShdKa-1">
          <mxGeometry x="0.0044827586207247805" y="20" width="170" height="20" as="geometry" />
        </mxCell>
        <mxCell id="5ZUfr6p9lb8zKIRzLnJt-70" value="&lt;font style=&quot;font-size: 8px&quot;&gt;event TransferBatch(from, to, tokenIds,values)&lt;/font&gt;" style="text;html=1;align=center;verticalAlign=middle;resizable=0;points=[];autosize=1;strokeColor=none;fillColor=none;" vertex="1" parent="iGW_8nmp0ndJy8pShdKa-1">
          <mxGeometry y="40" width="180" height="20" as="geometry" />
        </mxCell>
        <mxCell id="iGW_8nmp0ndJy8pShdKa-2" value="&lt;span style=&quot;font-size: 8px&quot;&gt;purchases[requestId] = new Purchase({buyer: address, packCount: 3, packId: 1, random:&amp;nbsp; randomNumber})&lt;/span&gt;" style="text;html=1;align=center;verticalAlign=middle;resizable=0;points=[];autosize=1;strokeColor=none;fillColor=none;" vertex="1" parent="5ZUfr6p9lb8zKIRzLnJt-1">
          <mxGeometry x="640" y="80" width="400" height="20" as="geometry" />
        </mxCell>
        <mxCell id="iGW_8nmp0ndJy8pShdKa-3" value="vrfcoordinator (oracle contract)" style="shape=umlLifeline;perimeter=lifelinePerimeter;whiteSpace=wrap;html=1;container=1;collapsible=0;recursiveResize=0;outlineConnect=0;lifelineDashed=0;" vertex="1" parent="5ZUfr6p9lb8zKIRzLnJt-1">
          <mxGeometry x="890" y="120" width="100" height="650" as="geometry" />
        </mxCell>
        <mxCell id="iGW_8nmp0ndJy8pShdKa-6" value="oracleOperator (chainlink node)" style="shape=umlLifeline;perimeter=lifelinePerimeter;whiteSpace=wrap;html=1;container=1;collapsible=0;recursiveResize=0;outlineConnect=0;lifelineDashed=0;" vertex="1" parent="5ZUfr6p9lb8zKIRzLnJt-1">
          <mxGeometry x="1080" y="120" width="100" height="640" as="geometry" />
        </mxCell>
        <mxCell id="iGW_8nmp0ndJy8pShdKa-7" value="chainlink" style="text;html=1;align=center;verticalAlign=middle;resizable=0;points=[];autosize=1;strokeColor=none;fillColor=none;fontSize=8;" vertex="1" parent="5ZUfr6p9lb8zKIRzLnJt-1">
          <mxGeometry x="1105" y="100" width="50" height="20" as="geometry" />
        </mxCell>
        <mxCell id="iGW_8nmp0ndJy8pShdKa-8" value="chainlink" style="text;html=1;align=center;verticalAlign=middle;resizable=0;points=[];autosize=1;strokeColor=none;fillColor=none;fontSize=8;" vertex="1" parent="5ZUfr6p9lb8zKIRzLnJt-1">
          <mxGeometry x="915" y="100" width="50" height="20" as="geometry" />
        </mxCell>
        <mxCell id="iGW_8nmp0ndJy8pShdKa-19" value="&lt;span style=&quot;font-size: 8px&quot;&gt;generateRandomNumber(): requestId&lt;/span&gt;" style="text;html=1;align=center;verticalAlign=middle;resizable=0;points=[];autosize=1;strokeColor=none;fillColor=none;" vertex="1" parent="5ZUfr6p9lb8zKIRzLnJt-1">
          <mxGeometry x="745" y="210" width="150" height="20" as="geometry" />
        </mxCell>
        <mxCell id="iGW_8nmp0ndJy8pShdKa-23" value="&lt;span style=&quot;font-size: 8px&quot;&gt;requestId = vrfrandom(keyHash, fee)&lt;/span&gt;" style="text;html=1;align=center;verticalAlign=middle;resizable=0;points=[];autosize=1;strokeColor=none;fillColor=none;" vertex="1" parent="5ZUfr6p9lb8zKIRzLnJt-1">
          <mxGeometry x="745" y="230" width="150" height="20" as="geometry" />
        </mxCell>
        <mxCell id="iGW_8nmp0ndJy8pShdKa-24" value="&amp;nbsp;" style="text;html=1;align=center;verticalAlign=middle;resizable=0;points=[];autosize=1;strokeColor=none;fillColor=none;fontSize=8;" vertex="1" parent="5ZUfr6p9lb8zKIRzLnJt-1">
          <mxGeometry x="520" y="190" width="20" height="20" as="geometry" />
        </mxCell>
        <mxCell id="iGW_8nmp0ndJy8pShdKa-52" value="&lt;div style=&quot;text-align: center&quot;&gt;&lt;span&gt;&lt;font face=&quot;helvetica&quot;&gt;randomNumber&lt;/font&gt;&lt;/span&gt;&lt;/div&gt;" style="text;whiteSpace=wrap;html=1;fontSize=8;" vertex="1" parent="5ZUfr6p9lb8zKIRzLnJt-1">
          <mxGeometry x="965" y="270" width="150" height="20" as="geometry" />
        </mxCell>
        <mxCell id="iGW_8nmp0ndJy8pShdKa-53" value="&lt;span style=&quot;font-size: 8px&quot;&gt;fulfilRandomness(requestId)&lt;/span&gt;" style="text;html=1;align=center;verticalAlign=middle;resizable=0;points=[];autosize=1;strokeColor=none;fillColor=none;" vertex="1" parent="5ZUfr6p9lb8zKIRzLnJt-1">
          <mxGeometry x="760" y="280" width="120" height="20" as="geometry" />
        </mxCell>
        <mxCell id="iGW_8nmp0ndJy8pShdKa-63" style="edgeStyle=none;rounded=0;orthogonalLoop=1;jettySize=auto;html=1;fontSize=8;startArrow=none;startFill=0;endArrow=classicThin;endFill=1;strokeColor=default;strokeWidth=1;" edge="1" parent="5ZUfr6p9lb8zKIRzLnJt-1" source="iGW_8nmp0ndJy8pShdKa-55" target="5ZUfr6p9lb8zKIRzLnJt-62">
          <mxGeometry relative="1" as="geometry">
            <Array as="points">
              <mxPoint x="750" y="310" />
            </Array>
          </mxGeometry>
        </mxCell>
        <mxCell id="iGW_8nmp0ndJy8pShdKa-64" style="edgeStyle=none;rounded=0;orthogonalLoop=1;jettySize=auto;html=1;fontSize=8;startArrow=none;startFill=0;endArrow=classicThin;endFill=1;strokeColor=default;strokeWidth=1;" edge="1" parent="5ZUfr6p9lb8zKIRzLnJt-1" source="iGW_8nmp0ndJy8pShdKa-61" target="5ZUfr6p9lb8zKIRzLnJt-4">
          <mxGeometry relative="1" as="geometry">
            <Array as="points">
              <mxPoint x="1150" y="340" />
            </Array>
          </mxGeometry>
        </mxCell>
        <mxCell id="iGW_8nmp0ndJy8pShdKa-65" value="&lt;span style=&quot;font-size: 8px&quot;&gt;mintPack(requestId)&lt;/span&gt;" style="text;html=1;align=center;verticalAlign=middle;resizable=0;points=[];autosize=1;strokeColor=none;fillColor=none;" vertex="1" parent="5ZUfr6p9lb8zKIRzLnJt-1">
          <mxGeometry x="785" y="340" width="90" height="20" as="geometry" />
        </mxCell>
        <mxCell id="iGW_8nmp0ndJy8pShdKa-58" value="&lt;span style=&quot;font-size: 8px&quot;&gt;event randomReceived(requestId)&lt;/span&gt;" style="text;html=1;align=center;verticalAlign=middle;resizable=0;points=[];autosize=1;strokeColor=none;fillColor=none;" vertex="1" parent="5ZUfr6p9lb8zKIRzLnJt-1">
          <mxGeometry x="950" y="289.52" width="140" height="20" as="geometry" />
        </mxCell>
        <mxCell id="iGW_8nmp0ndJy8pShdKa-71" value="&lt;span style=&quot;font-size: 8px&quot;&gt;bluePrintRandom: keccak256(random, i, j, buyer)&amp;nbsp;&lt;/span&gt;&lt;span style=&quot;font-size: 8px&quot;&gt;% totalNumberBluePrints&lt;/span&gt;" style="text;html=1;align=center;verticalAlign=middle;resizable=0;points=[];autosize=1;strokeColor=none;fillColor=none;" vertex="1" parent="5ZUfr6p9lb8zKIRzLnJt-1">
          <mxGeometry x="700" y="1250" width="280" height="20" as="geometry" />
        </mxCell>
        <mxCell id="iGW_8nmp0ndJy8pShdKa-72" value="&lt;span style=&quot;font-size: 8px&quot;&gt;rarityRandom:&amp;nbsp;&lt;/span&gt;&lt;span style=&quot;font-size: 8px&quot;&gt;keccak256(random, i, j, buyer)&amp;nbsp;&lt;/span&gt;" style="text;html=1;align=center;verticalAlign=middle;resizable=0;points=[];autosize=1;strokeColor=none;fillColor=none;" vertex="1" parent="5ZUfr6p9lb8zKIRzLnJt-1">
          <mxGeometry x="700" y="1270" width="180" height="20" as="geometry" />
        </mxCell>
        <mxCell id="iGW_8nmp0ndJy8pShdKa-73" value="&lt;span style=&quot;font-size: 8px&quot;&gt;i&lt;/span&gt;" style="text;html=1;align=center;verticalAlign=middle;resizable=0;points=[];autosize=1;strokeColor=none;fillColor=none;" vertex="1" parent="5ZUfr6p9lb8zKIRzLnJt-1">
          <mxGeometry x="640" y="1250" width="20" height="20" as="geometry" />
        </mxCell>
        <mxCell id="iGW_8nmp0ndJy8pShdKa-74" value="&lt;span style=&quot;font-size: 8px&quot;&gt;j&lt;/span&gt;" style="text;html=1;align=center;verticalAlign=middle;resizable=0;points=[];autosize=1;strokeColor=none;fillColor=none;" vertex="1" parent="5ZUfr6p9lb8zKIRzLnJt-1">
          <mxGeometry x="660" y="1250" width="20" height="20" as="geometry" />
        </mxCell>
        <mxCell id="iGW_8nmp0ndJy8pShdKa-75" value="&lt;span style=&quot;font-size: 8px&quot;&gt;1&lt;/span&gt;" style="text;html=1;align=center;verticalAlign=middle;resizable=0;points=[];autosize=1;strokeColor=none;fillColor=none;" vertex="1" parent="5ZUfr6p9lb8zKIRzLnJt-1">
          <mxGeometry x="640" y="1270" width="20" height="20" as="geometry" />
        </mxCell>
        <mxCell id="iGW_8nmp0ndJy8pShdKa-76" value="&lt;span style=&quot;font-size: 8px&quot;&gt;3&lt;/span&gt;" style="text;html=1;align=center;verticalAlign=middle;resizable=0;points=[];autosize=1;strokeColor=none;fillColor=none;" vertex="1" parent="5ZUfr6p9lb8zKIRzLnJt-1">
          <mxGeometry x="660" y="1270" width="20" height="20" as="geometry" />
        </mxCell>
        <mxCell id="pWLsWgDy2R7Qz2uQCMan-3" value="&lt;span style=&quot;font-size: 8px&quot;&gt;_mint:&amp;nbsp;&lt;/span&gt;&lt;span style=&quot;font-size: 8px&quot;&gt;keccak256(random, i, j, buyer) % 100&lt;/span&gt;" style="text;html=1;align=center;verticalAlign=middle;resizable=0;points=[];autosize=1;strokeColor=none;fillColor=none;" vertex="1" parent="5ZUfr6p9lb8zKIRzLnJt-1">
          <mxGeometry x="700" y="1350" width="170" height="20" as="geometry" />
        </mxCell>
        <mxCell id="pWLsWgDy2R7Qz2uQCMan-5" value="&lt;span style=&quot;font-size: 8px&quot;&gt;if (rarityRandom === 99) rarity = Rare&lt;br&gt;&lt;/span&gt;" style="text;html=1;align=center;verticalAlign=middle;resizable=0;points=[];autosize=1;strokeColor=none;fillColor=none;" vertex="1" parent="5ZUfr6p9lb8zKIRzLnJt-1">
          <mxGeometry x="700" y="1310" width="150" height="20" as="geometry" />
        </mxCell>
        <mxCell id="pWLsWgDy2R7Qz2uQCMan-6" value="&lt;span style=&quot;font-size: 8px&quot;&gt;rarity:&amp;nbsp; else rarity === Common&lt;br&gt;&lt;/span&gt;" style="text;html=1;align=center;verticalAlign=middle;resizable=0;points=[];autosize=1;strokeColor=none;fillColor=none;" vertex="1" parent="5ZUfr6p9lb8zKIRzLnJt-1">
          <mxGeometry x="700" y="1330" width="130" height="20" as="geometry" />
        </mxCell>
        <mxCell id="pWLsWgDy2R7Qz2uQCMan-8" value="&lt;span style=&quot;font-size: 8px&quot;&gt;selectCards(purchases[requestId].packId)&lt;br&gt;&lt;/span&gt;" style="text;html=1;align=center;verticalAlign=middle;resizable=0;points=[];autosize=1;strokeColor=none;fillColor=none;" vertex="1" parent="5ZUfr6p9lb8zKIRzLnJt-1">
          <mxGeometry x="700" y="1290" width="160" height="20" as="geometry" />
        </mxCell>
        <mxCell id="pWLsWgDy2R7Qz2uQCMan-10" value="&lt;font style=&quot;font-size: 8px&quot;&gt;buyPack(packId)&amp;nbsp;&lt;/font&gt;" style="text;html=1;align=center;verticalAlign=middle;resizable=0;points=[];autosize=1;strokeColor=none;fillColor=none;" vertex="1" parent="5ZUfr6p9lb8zKIRzLnJt-1">
          <mxGeometry x="310" y="180" width="80" height="20" as="geometry" />
        </mxCell>
        <mxCell id="pWLsWgDy2R7Qz2uQCMan-12" value="&lt;span style=&quot;font-size: 8px&quot;&gt;mintPlayer(bluePrint, Rarity)&lt;/span&gt;" style="text;html=1;align=center;verticalAlign=middle;resizable=0;points=[];autosize=1;strokeColor=none;fillColor=none;" vertex="1" parent="5ZUfr6p9lb8zKIRzLnJt-1">
          <mxGeometry x="289.5" y="615" width="120" height="20" as="geometry" />
        </mxCell>
        <mxCell id="pWLsWgDy2R7Qz2uQCMan-14" value="&lt;span style=&quot;font-size: 8px&quot;&gt;mintPlayerForUser(userwalletaddress, blueprint, rarity)&lt;/span&gt;" style="text;html=1;align=center;verticalAlign=middle;resizable=0;points=[];autosize=1;strokeColor=none;fillColor=none;" vertex="1" parent="5ZUfr6p9lb8zKIRzLnJt-1">
          <mxGeometry x="715.5" y="640" width="210" height="20" as="geometry" />
        </mxCell>
        <mxCell id="pWLsWgDy2R7Qz2uQCMan-26" value="" style="fontSize=12;html=1;endArrow=none;endFill=0;rounded=0;startArrow=classic;startFill=1;" edge="1" parent="5ZUfr6p9lb8zKIRzLnJt-1">
          <mxGeometry width="160" relative="1" as="geometry">
            <mxPoint x="710.5" y="660" as="sourcePoint" />
            <mxPoint x="1281" y="660" as="targetPoint" />
          </mxGeometry>
        </mxCell>
        <mxCell id="pWLsWgDy2R7Qz2uQCMan-32" value="" style="fontSize=12;html=1;endArrow=blockThin;endFill=1;rounded=0;" edge="1" parent="5ZUfr6p9lb8zKIRzLnJt-1">
          <mxGeometry width="160" relative="1" as="geometry">
            <mxPoint x="230.5" y="450" as="sourcePoint" />
            <mxPoint x="480.0000000000002" y="450" as="targetPoint" />
            <Array as="points">
              <mxPoint x="440.5" y="450" />
            </Array>
          </mxGeometry>
        </mxCell>
        <mxCell id="pWLsWgDy2R7Qz2uQCMan-33" value="&lt;span style=&quot;font-size: 8px&quot;&gt;buyPackForUser()&lt;/span&gt;" style="text;html=1;align=center;verticalAlign=middle;resizable=0;points=[];autosize=1;strokeColor=none;fillColor=none;" vertex="1" parent="5ZUfr6p9lb8zKIRzLnJt-1">
          <mxGeometry x="300" y="429.99999999999994" width="80" height="20" as="geometry" />
        </mxCell>
        <mxCell id="pWLsWgDy2R7Qz2uQCMan-35" value="&lt;span style=&quot;font-size: 8px&quot;&gt;generateCardsForUser(userId): players [{blueprint, rarity}, ]&amp;nbsp;&lt;/span&gt;" style="text;html=1;align=center;verticalAlign=middle;resizable=0;points=[];autosize=1;strokeColor=none;fillColor=none;" vertex="1" parent="5ZUfr6p9lb8zKIRzLnJt-1">
          <mxGeometry x="720.5" y="449.99999999999994" width="230" height="20" as="geometry" />
        </mxCell>
        <mxCell id="pWLsWgDy2R7Qz2uQCMan-27" value="&lt;span style=&quot;font-size: 8px&quot;&gt;mintPlayer(bluePrint, Rarity)&lt;/span&gt;" style="text;html=1;align=center;verticalAlign=middle;resizable=0;points=[];autosize=1;strokeColor=none;fillColor=none;" vertex="1" parent="5ZUfr6p9lb8zKIRzLnJt-1">
          <mxGeometry x="550.5" y="615" width="120" height="20" as="geometry" />
        </mxCell>
        <mxCell id="pWLsWgDy2R7Qz2uQCMan-13" value="" style="fontSize=12;html=1;endArrow=blockThin;endFill=1;rounded=0;" edge="1" parent="5ZUfr6p9lb8zKIRzLnJt-1">
          <mxGeometry width="160" relative="1" as="geometry">
            <mxPoint x="480.5" y="640" as="sourcePoint" />
            <mxPoint x="1280.5" y="640" as="targetPoint" />
          </mxGeometry>
        </mxCell>
        <mxCell id="pWLsWgDy2R7Qz2uQCMan-41" value="" style="fontSize=12;html=1;endArrow=blockThin;endFill=1;rounded=0;strokeColor=default;strokeWidth=1;" edge="1" parent="5ZUfr6p9lb8zKIRzLnJt-1">
          <mxGeometry width="160" relative="1" as="geometry">
            <mxPoint x="1279.5" y="477.9999999999999" as="sourcePoint" />
            <mxPoint x="1679.9999999999995" y="478" as="targetPoint" />
          </mxGeometry>
        </mxCell>
        <mxCell id="pWLsWgDy2R7Qz2uQCMan-43" value="" style="fontSize=12;html=1;endArrow=none;endFill=0;rounded=0;strokeColor=default;strokeWidth=1;startArrow=classic;startFill=1;" edge="1" parent="5ZUfr6p9lb8zKIRzLnJt-1">
          <mxGeometry width="160" relative="1" as="geometry">
            <mxPoint x="1279.8235294117649" y="540" as="sourcePoint" />
            <mxPoint x="1679.9999999999995" y="540" as="targetPoint" />
            <Array as="points">
              <mxPoint x="1480.5" y="540" />
              <mxPoint x="1510.5" y="540" />
            </Array>
          </mxGeometry>
        </mxCell>
        <mxCell id="pWLsWgDy2R7Qz2uQCMan-49" value="" style="fontSize=12;html=1;endArrow=blockThin;endFill=1;rounded=0;" edge="1" parent="5ZUfr6p9lb8zKIRzLnJt-1">
          <mxGeometry width="160" relative="1" as="geometry">
            <mxPoint x="710.4999999999998" y="520" as="sourcePoint" />
            <mxPoint x="1279.9999999999995" y="520" as="targetPoint" />
            <Array as="points">
              <mxPoint x="920.5" y="520" />
            </Array>
          </mxGeometry>
        </mxCell>
        <mxCell id="pWLsWgDy2R7Qz2uQCMan-51" value="&lt;span style=&quot;font-size: 8px&quot;&gt;userPlayerData&lt;/span&gt;" style="text;html=1;align=center;verticalAlign=middle;resizable=0;points=[];autosize=1;strokeColor=none;fillColor=none;" vertex="1" parent="5ZUfr6p9lb8zKIRzLnJt-1">
          <mxGeometry x="825.5" y="550" width="70" height="20" as="geometry" />
        </mxCell>
        <mxCell id="pWLsWgDy2R7Qz2uQCMan-54" value="&lt;span style=&quot;font-size: 8px&quot;&gt;increase balance of user&amp;nbsp;&lt;/span&gt;" style="text;html=1;align=center;verticalAlign=middle;resizable=0;points=[];autosize=1;strokeColor=none;fillColor=none;" vertex="1" parent="5ZUfr6p9lb8zKIRzLnJt-1">
          <mxGeometry x="325.5" y="650" width="100" height="20" as="geometry" />
        </mxCell>
        <mxCell id="pWLsWgDy2R7Qz2uQCMan-56" style="edgeStyle=none;rounded=0;orthogonalLoop=1;jettySize=auto;html=1;fontSize=8;startArrow=none;startFill=0;endArrow=classic;endFill=1;strokeColor=default;strokeWidth=1;" edge="1" parent="5ZUfr6p9lb8zKIRzLnJt-1" source="pWLsWgDy2R7Qz2uQCMan-55">
          <mxGeometry relative="1" as="geometry">
            <mxPoint x="1279.9999999999995" y="690" as="targetPoint" />
            <Array as="points">
              <mxPoint x="850.5" y="690" />
            </Array>
          </mxGeometry>
        </mxCell>
        <mxCell id="pWLsWgDy2R7Qz2uQCMan-61" style="edgeStyle=none;rounded=0;orthogonalLoop=1;jettySize=auto;html=1;fontSize=8;startArrow=none;startFill=0;endArrow=classic;endFill=1;strokeColor=default;strokeWidth=1;" edge="1" parent="5ZUfr6p9lb8zKIRzLnJt-1">
          <mxGeometry relative="1" as="geometry">
            <mxPoint x="1280.5" y="710" as="sourcePoint" />
            <mxPoint x="1679.9999999999995" y="710" as="targetPoint" />
            <Array as="points">
              <mxPoint x="1415.5" y="710" />
            </Array>
          </mxGeometry>
        </mxCell>
        <mxCell id="pWLsWgDy2R7Qz2uQCMan-60" value="&lt;span style=&quot;font-size: 8px&quot;&gt;event PlayerMinted(to, tokenId, BluePrint, Rarity)&lt;/span&gt;" style="text;html=1;align=center;verticalAlign=middle;resizable=0;points=[];autosize=1;strokeColor=none;fillColor=none;" vertex="1" parent="5ZUfr6p9lb8zKIRzLnJt-1">
          <mxGeometry x="715.5" y="720" width="190" height="20" as="geometry" />
        </mxCell>
        <mxCell id="pWLsWgDy2R7Qz2uQCMan-63" value="&lt;span style=&quot;font-size: 8px&quot;&gt;event TransferSingle(from, to, tokenId, value)&lt;/span&gt;" style="text;html=1;align=center;verticalAlign=middle;resizable=0;points=[];autosize=1;strokeColor=none;fillColor=none;" vertex="1" parent="5ZUfr6p9lb8zKIRzLnJt-1">
          <mxGeometry x="715.5" y="690" width="180" height="20" as="geometry" />
        </mxCell>
        <mxCell id="pWLsWgDy2R7Qz2uQCMan-62" value="updateUserNFTs(userAddress, tokenId, value)" style="text;html=1;align=center;verticalAlign=middle;resizable=0;points=[];autosize=1;strokeColor=none;fillColor=none;fontSize=8;" vertex="1" parent="5ZUfr6p9lb8zKIRzLnJt-1">
          <mxGeometry x="1340.5" y="690" width="180" height="20" as="geometry" />
        </mxCell>
        <mxCell id="pWLsWgDy2R7Qz2uQCMan-65" style="edgeStyle=none;rounded=0;orthogonalLoop=1;jettySize=auto;html=1;fontSize=8;startArrow=none;startFill=0;endArrow=classic;endFill=1;strokeColor=default;strokeWidth=1;" edge="1" parent="5ZUfr6p9lb8zKIRzLnJt-1">
          <mxGeometry relative="1" as="geometry">
            <mxPoint x="715.5" y="720" as="sourcePoint" />
            <mxPoint x="1280" y="720" as="targetPoint" />
            <Array as="points">
              <mxPoint x="850.5" y="720" />
            </Array>
          </mxGeometry>
        </mxCell>
        <mxCell id="pWLsWgDy2R7Qz2uQCMan-66" style="edgeStyle=none;rounded=0;orthogonalLoop=1;jettySize=auto;html=1;fontSize=8;startArrow=none;startFill=0;endArrow=classic;endFill=1;strokeColor=default;strokeWidth=1;" edge="1" parent="5ZUfr6p9lb8zKIRzLnJt-1">
          <mxGeometry relative="1" as="geometry">
            <mxPoint x="1280.5" y="739.43" as="sourcePoint" />
            <mxPoint x="1679.9999999999995" y="739.4299999999998" as="targetPoint" />
            <Array as="points">
              <mxPoint x="1415.5" y="739.43" />
            </Array>
          </mxGeometry>
        </mxCell>
        <mxCell id="pWLsWgDy2R7Qz2uQCMan-73" style="edgeStyle=none;rounded=0;orthogonalLoop=1;jettySize=auto;html=1;fontSize=8;startArrow=none;startFill=0;endArrow=classicThin;endFill=1;strokeColor=default;strokeWidth=1;" edge="1" parent="5ZUfr6p9lb8zKIRzLnJt-1" source="iGW_8nmp0ndJy8pShdKa-61" target="5ZUfr6p9lb8zKIRzLnJt-4">
          <mxGeometry relative="1" as="geometry">
            <mxPoint x="1274.9999999999995" y="340" as="sourcePoint" />
            <mxPoint x="709.3235294117649" y="340" as="targetPoint" />
            <Array as="points">
              <mxPoint x="1240" y="340" />
            </Array>
          </mxGeometry>
        </mxCell>
        <mxCell id="pWLsWgDy2R7Qz2uQCMan-74" style="edgeStyle=none;rounded=0;orthogonalLoop=1;jettySize=auto;html=1;fontSize=8;startArrow=classic;startFill=1;endArrow=none;endFill=0;strokeColor=default;strokeWidth=1;" edge="1" parent="5ZUfr6p9lb8zKIRzLnJt-1">
          <mxGeometry relative="1" as="geometry">
            <mxPoint x="1280.33" y="370" as="sourcePoint" />
            <mxPoint x="714.9966666666668" y="370" as="targetPoint" />
            <Array as="points">
              <mxPoint x="1245.33" y="370" />
            </Array>
          </mxGeometry>
        </mxCell>
        <mxCell id="pWLsWgDy2R7Qz2uQCMan-75" value="&lt;span style=&quot;font-size: 8px&quot;&gt;event playerMintedTo(to, from, tokenId, blueprint, rarity)&lt;/span&gt;" style="text;html=1;align=center;verticalAlign=middle;resizable=0;points=[];autosize=1;strokeColor=none;fillColor=none;" vertex="1" parent="5ZUfr6p9lb8zKIRzLnJt-1">
          <mxGeometry x="925" y="370" width="210" height="20" as="geometry" />
        </mxCell>
        <mxCell id="pWLsWgDy2R7Qz2uQCMan-76" value="&lt;span style=&quot;font-size: 8px&quot;&gt;event TransferSingle(to, from, tokenId, value)&lt;/span&gt;" style="text;html=1;align=center;verticalAlign=middle;resizable=0;points=[];autosize=1;strokeColor=none;fillColor=none;" vertex="1" parent="5ZUfr6p9lb8zKIRzLnJt-1">
          <mxGeometry x="725" y="370" width="180" height="20" as="geometry" />
        </mxCell>
        <mxCell id="pWLsWgDy2R7Qz2uQCMan-82" value="&lt;span style=&quot;font-size: 8px&quot;&gt;updateUserOwnedPlayers(walletAddress, Rarity, Blueprint)&amp;nbsp;&lt;/span&gt;" style="text;html=1;align=center;verticalAlign=middle;resizable=0;points=[];autosize=1;strokeColor=none;fillColor=none;" vertex="1" parent="5ZUfr6p9lb8zKIRzLnJt-1">
          <mxGeometry x="1315" y="380" width="230" height="20" as="geometry" />
        </mxCell>
        <mxCell id="pWLsWgDy2R7Qz2uQCMan-50" style="edgeStyle=none;rounded=0;orthogonalLoop=1;jettySize=auto;html=1;fontSize=8;startArrow=none;startFill=0;endArrow=classic;endFill=1;strokeColor=default;strokeWidth=1;entryX=0.133;entryY=0.941;entryDx=0;entryDy=0;entryPerimeter=0;" edge="1" parent="5ZUfr6p9lb8zKIRzLnJt-1" target="pWLsWgDy2R7Qz2uQCMan-46">
          <mxGeometry relative="1" as="geometry">
            <mxPoint x="1279.9999999999995" y="557.0500000000002" as="sourcePoint" />
            <mxPoint x="490.5" y="550" as="targetPoint" />
          </mxGeometry>
        </mxCell>
        <mxCell id="pWLsWgDy2R7Qz2uQCMan-83" value="&lt;span style=&quot;font-size: 14px&quot;&gt;Buy pack onChain&lt;/span&gt;" style="text;html=1;align=center;verticalAlign=middle;resizable=0;points=[];autosize=1;strokeColor=none;fillColor=none;fontSize=8;" vertex="1" parent="5ZUfr6p9lb8zKIRzLnJt-1">
          <mxGeometry x="240" y="380" width="130" height="20" as="geometry" />
        </mxCell>
        <mxCell id="pWLsWgDy2R7Qz2uQCMan-85" value="Solution to be discussed" style="text;html=1;align=center;verticalAlign=middle;resizable=0;points=[];autosize=1;strokeColor=none;fillColor=none;fontSize=8;" vertex="1" parent="5ZUfr6p9lb8zKIRzLnJt-1">
          <mxGeometry x="240" y="350" width="100" height="20" as="geometry" />
        </mxCell>
      </root>
    </mxGraphModel>
  </diagram>
</mxfile>
